<svg width="117" height="36" viewBox="0 0 117 36" fill="none" xmlns="http://www.w3.org/2000/svg">
<g clip-path="url(#clip0_1537_45980)">
<path d="M1.69284 1.68856C1.69284 1.41839 0.947992 0.675422 0.677137 0.675422H0V0H3.9274L7.99022 10.1989H8.05793L12.3239 0H15.845V0.675422H15.1679C14.897 0.675422 14.1522 1.41839 14.1522 1.68856V11.8199C14.1522 12.0901 14.9647 12.833 15.1679 12.833H15.845V13.5084H10.6311V12.833H11.3082C11.579 12.833 12.3239 12.0901 12.3239 11.8199V1.95872L7.44851 13.7111L2.50541 1.7561V11.7523C2.50541 12.0225 3.31797 12.7655 3.52111 12.7655H4.19825V13.4409H0V12.7655H0.677137C0.947992 12.7655 1.69284 12.0225 1.69284 11.7523V1.68856Z" fill="black"/>
<path d="M21.5968 7.69792C21.8676 6.34708 21.5968 5.13132 20.1071 5.13132C18.3465 5.13132 17.534 6.5497 17.534 8.57597C17.534 10.5347 18.7528 12.1557 20.7842 12.1557C22.2739 12.1557 22.9511 11.6154 23.5605 10.6022H24.1022C23.5605 12.4934 22.3416 13.7092 20.1748 13.7092C17.7371 13.7092 16.1797 11.6154 16.1797 9.18385C16.1797 6.34708 18.0757 4.52344 20.3779 4.52344C21.7322 4.52344 22.6802 4.92869 23.4928 5.7392L22.2062 7.69792H21.5968Z" fill="black"/>
<path d="M39.2761 2.63514C39.9533 2.63514 40.4273 2.16235 40.4273 1.48693C40.4273 0.811503 39.8856 0.40625 39.2761 0.40625C38.599 0.40625 38.125 0.811503 38.125 1.48693C38.125 2.16235 38.599 2.63514 39.2761 2.63514Z" fill="black"/>
<path d="M51.6662 12.833C51.3954 12.833 50.7183 12.2251 50.7183 11.8874V7.02439C50.7183 5.53846 49.6348 4.52533 48.2806 4.52533C46.7231 4.52533 45.9106 5.40338 44.8272 6.48405L44.4886 4.72796H41.7123V5.40338H42.254C42.5249 5.40338 43.202 6.0788 43.202 6.34897V11.955C43.202 12.2251 42.5249 12.9006 42.254 12.9006H41.7123H41.1706C40.8998 12.9006 40.2226 12.2927 40.2226 11.955V4.72796H37.1078V5.40338H37.6495C37.9204 5.40338 38.5975 6.01126 38.5975 6.28143V11.8874C38.5975 12.1576 37.9204 12.833 37.6495 12.833H37.1078H36.6338C36.3629 12.833 35.2795 12.0225 35.0087 11.6848L30.2687 5.40338L33.5867 1.89118C33.7898 1.68856 35.0764 0.675422 35.3472 0.675422H36.0244V0H31.149V0.675422H31.8261C32.097 0.675422 32.8418 1.62101 32.6387 1.82364L27.831 7.22702V1.68856C27.831 1.41839 28.6436 0.675422 28.8467 0.675422H29.5239V0H24.2422V0.675422H24.9193C25.1902 0.675422 25.935 1.41839 25.935 1.68856V11.8199C25.935 12.0901 25.1225 12.833 24.9193 12.833H24.2422V13.5084H29.5239V12.833H28.8467C28.5759 12.833 27.831 12.0901 27.831 11.8199V8.24015L29.1853 6.75422L33.8575 13.5084H37.1755H41.8478H46.4523V12.833H45.9783C45.7074 12.833 45.0303 12.2251 45.0303 11.8874V7.42964C45.0303 6.82176 46.6554 5.606 47.8743 5.606C48.8223 5.606 49.2963 6.28143 49.2963 7.09193V11.8874C49.2963 12.1576 48.6191 12.833 48.3483 12.833H47.8743V13.5084H52.1402V12.833H51.6662Z" fill="black"/>
<path d="M53.2943 10.4047C53.2943 11.2152 54.5132 12.9713 56.4091 12.9713C57.4926 12.9713 58.102 12.566 58.102 11.7555C58.102 10.7424 57.2217 10.4722 56.4769 10.1345C55.8674 9.86431 55.3934 9.66169 54.6486 9.32398C53.5652 8.85118 52.8203 8.10822 52.8203 6.96C52.8203 5.40653 53.7683 4.46094 55.4611 4.46094C56.4091 4.46094 56.9508 4.93373 57.628 4.93373C57.8988 4.93373 58.0343 4.86619 58.102 4.66356H58.576V7.36525H58.0343C58.0343 6.62229 57.0186 5.13636 55.3934 5.13636C54.3777 5.13636 53.9037 5.60916 53.9037 6.28458C53.9037 7.02754 54.4454 7.29771 55.3257 7.70296C56.0029 7.97313 56.4769 8.17576 57.2217 8.51347C58.1697 8.85118 59.2531 9.66169 59.2531 11.0801C59.2531 12.7686 58.102 13.7142 56.4769 13.7142C55.3934 13.7142 54.7163 13.1739 53.9714 13.1739C53.6329 13.1739 53.4974 13.2414 53.2943 13.4441H52.888V10.3371H53.2943V10.4047Z" fill="black"/>
<path d="M59.7266 9.11631C59.7266 6.5497 61.4871 4.52344 63.7894 4.52344C65.7531 4.52344 66.9042 5.87428 66.9719 7.63038L67.0396 8.23826L61.2163 8.71105C61.2163 10.4672 62.4351 12.2233 64.3988 12.2233C65.8885 12.2233 66.5656 11.6829 67.1074 10.6698H67.6491C67.0396 12.561 65.9562 13.7767 63.8571 13.7767C61.3517 13.7092 59.7266 11.5478 59.7266 9.11631ZM65.4822 7.69792C65.6177 6.48216 65.4145 5.19886 63.7217 5.19886C61.8934 5.19886 61.1486 6.68479 61.1486 8.03563L65.4822 7.69792Z" fill="black"/>
<path d="M68.5262 6.34758C68.3907 6.07741 67.5782 5.40198 67.375 5.40198H66.9688V4.72656H71.641V5.40198H71.0993C70.8284 5.40198 70.2867 6.00986 70.2867 6.34758L72.3181 11.008L74.3495 6.34758C74.3495 6.00986 73.8078 5.40198 73.6047 5.40198H73.063V4.72656H76.5841V5.40198H76.1778C75.9747 5.40198 75.3653 6.07741 75.1621 6.34758L72.1827 13.1018L69.9482 17.9648L69.1356 17.6271L71.5056 12.8316L68.5262 6.34758Z" fill="black"/>
<path d="M26.1408 20.4623C26.1408 21.5429 26.8856 22.421 28.0368 22.8262C29.7973 24.7174 31.8965 26.6762 33.7247 28.2972C34.2664 27.4191 34.4019 26.5411 34.4019 25.3929C34.4019 24.1771 33.5893 23.4341 32.235 23.3666V22.6912H37.0427V23.3666H36.5687C36.2978 23.3666 35.3499 24.4473 35.3499 24.8525C35.2821 26.0007 35.0113 27.4191 34.131 28.6349C35.1467 29.5129 36.0947 30.2559 36.9073 30.7962H37.7198V31.4717H36.2301C34.9436 31.4717 33.9956 31.1339 32.8444 30.1208C31.761 31.1339 30.4068 31.7418 28.3753 31.7418C26.2085 31.7418 24.1094 30.1208 24.1094 27.7568C24.1094 25.8656 25.0574 24.5148 26.2762 23.6368C25.5991 22.8262 25.1928 22.0157 25.1928 20.8C25.1928 18.8413 26.4794 17.8281 28.4431 17.8281C29.6619 17.8281 30.339 18.2334 30.8807 18.2334C31.1516 18.2334 31.3547 18.2334 31.4902 17.9632H32.0996V21.1377H31.4902C31.4902 20.2596 30.1359 18.436 28.3753 18.436C27.0211 18.5035 26.1408 19.2465 26.1408 20.4623ZM25.5314 26.9463C25.5314 28.905 27.5628 30.7287 29.5265 30.7287C30.7453 30.7287 31.6933 30.391 32.4382 29.8506C30.4745 28.1621 28.3076 26.0683 26.6148 24.1096C25.9376 24.785 25.5314 25.5279 25.5314 26.9463Z" fill="black"/>
<path d="M51.5972 22.8262C51.5972 21.4079 50.0398 18.6386 47.4666 18.6386C45.0967 18.6386 43.7424 19.9219 43.4715 22.9613C43.4038 24.1771 43.4038 25.1902 43.5392 26.406C43.7424 28.77 45.3675 30.7287 48.1438 30.7287C50.5138 30.7287 51.5972 29.7156 52.4775 27.9595H53.1546C52.2743 30.391 50.3783 31.8094 47.6698 31.8094C43.8101 31.8094 41.3047 28.6349 41.3047 24.785C41.3047 20.9351 43.5392 17.8281 47.3312 17.8281C48.7532 17.8281 49.7012 18.436 50.7169 18.436C51.1232 18.436 51.3263 18.3009 51.5295 18.0983H52.1389V22.8938H51.5972V22.8262Z" fill="black"/>
<path d="M54.1016 27.1554C54.1016 24.3186 56.133 22.5625 58.4352 22.5625C60.7375 22.5625 62.7689 24.3186 62.7689 27.1554C62.7689 29.9921 60.7375 31.8158 58.4352 31.8158C56.133 31.8158 54.1016 29.9921 54.1016 27.1554ZM61.0761 28.6413C61.2115 27.7632 61.2115 26.5475 61.0761 25.6694C60.9406 24.2511 60.1281 23.3055 58.503 23.3055C56.9455 23.3055 56.133 24.2511 55.9298 25.6694C55.7944 26.5475 55.7944 27.7632 55.9298 28.6413C56.133 29.9921 56.8778 31.0053 58.503 31.0053C60.1281 30.9377 60.9406 29.9921 61.0761 28.6413Z" fill="black"/>
<path d="M77.0558 29.9218C77.0558 30.192 77.733 30.8674 78.0038 30.8674H78.4101V31.5428H74.0087V30.8674H74.4827C74.7536 30.8674 75.4307 30.2595 75.4307 29.9218V25.0588C75.4307 24.1807 75.0244 23.6404 74.0764 23.6404C72.9253 23.6404 71.5033 24.7211 71.5033 25.329V29.9218C71.5033 30.192 72.1804 30.8674 72.4513 30.8674H72.9253V31.5428H68.4562V30.8674H68.9302C69.201 30.8674 69.8782 30.2595 69.8782 29.9218V25.0588C69.8782 24.1807 69.4042 23.6404 68.4562 23.6404C67.305 23.6404 65.8831 24.7886 65.8831 25.3965V29.9218C65.8831 30.192 66.5602 30.8674 66.831 30.8674H67.305V31.5428H62.8359V30.8674H63.3099C63.5808 30.8674 64.2579 30.2595 64.2579 29.9218V24.3158C64.2579 24.0457 63.5808 23.3702 63.3099 23.3702H62.8359V22.6948H65.5445L65.8831 24.3834C66.8988 23.3027 67.5082 22.4922 69.0656 22.4922C70.2167 22.4922 71.2324 23.1001 71.3679 24.3158C72.4513 23.2352 73.1284 22.4922 74.6181 22.4922C75.9047 22.4922 76.9881 23.3702 76.9881 24.9912V29.9218H77.0558Z" fill="black"/>
<path d="M80.9872 22.7651L81.2581 24.5888C82.0029 23.1704 82.9509 22.5625 84.4406 22.5625C86.6074 22.5625 87.894 24.3861 87.894 27.0203C87.894 29.6544 86.4043 31.7482 84.3052 31.7482C82.7478 31.7482 81.9352 31.1404 81.3258 29.9921V34.1798C81.3258 34.4499 82.0029 35.1254 82.2738 35.1254H82.8832V35.8008H78.2109V35.1254H78.8204C79.0912 35.1254 79.7684 34.5175 79.7684 34.1798V24.3861C79.7684 24.116 79.0912 23.4405 78.8204 23.4405H78.2109V22.7651H80.9872ZM81.3258 25.9396V28.236C81.3258 29.5869 82.4092 30.8026 83.8989 30.8026C85.3886 30.8026 86.1334 29.8571 86.2689 28.4387C86.4043 27.6282 86.4043 26.615 86.2689 25.8045C86.0657 24.3861 85.3209 23.5081 84.0343 23.5081C82.5446 23.5756 81.7321 24.5888 81.3258 25.9396Z" fill="black"/>
<path d="M106.986 30.8674C106.715 30.8674 106.038 30.2595 106.038 29.9218V25.0588C106.038 23.5729 104.954 22.5597 103.6 22.5597C102.043 22.5597 101.23 23.4378 100.147 24.5185L99.8082 22.6948H97.0319V23.3702H97.5736C97.8445 23.3702 98.5216 24.0457 98.5216 24.3158V29.9218C98.5216 30.192 97.8445 30.8674 97.5736 30.8674H97.0319H96.4902C96.2193 30.8674 95.5422 30.2595 95.5422 29.9218V25.1263C95.5422 23.3702 94.1202 22.4922 92.2242 22.4922C90.4637 22.4922 89.448 23.1001 88.7031 23.843L89.8543 25.5991H90.4637C89.7865 24.1132 90.3283 23.1676 91.818 23.1676C93.3754 23.1676 93.9171 23.843 93.8494 25.1263V26.207L91.6148 26.6798C90.396 26.95 88.7708 27.5579 88.7708 29.314C88.7708 30.7323 89.7865 31.6779 91.0054 31.6779C92.2919 31.6779 93.2399 30.6648 93.9171 29.7192L94.1202 31.4753H96.9642H101.569V30.7999H101.095C100.824 30.7999 100.147 30.192 100.147 29.8543V25.3965C100.147 24.7886 101.772 23.5729 102.991 23.5729C103.939 23.5729 104.413 24.2483 104.413 25.0588V29.8543C104.413 30.1245 103.736 30.7999 103.465 30.7999H102.923V31.4753H107.392V30.7999H106.986V30.8674ZM93.9171 28.9762C93.5785 29.6517 92.6305 30.5297 91.7502 30.5297C90.87 30.5297 90.3283 29.8543 90.3283 29.1113C90.3283 28.2333 90.6668 27.6254 91.818 27.3552L93.9171 26.8149V28.9762Z" fill="black"/>
<path d="M108.073 24.4542C107.938 24.184 107.193 23.441 106.922 23.441H106.516V22.7656H111.188V23.441H110.646C110.375 23.441 109.834 24.0489 109.834 24.3866L111.865 29.0471L113.896 24.3866C113.896 24.0489 113.355 23.441 113.152 23.441H112.61V22.7656H116.131V23.441H115.725C115.522 23.441 114.912 24.1165 114.709 24.3866L111.73 31.1409L109.495 36.0039L108.682 35.6662L111.052 30.8707L108.073 24.4542Z" fill="black"/>
</g>
<defs>
<clipPath id="clip0_1537_45980">
<rect width="116.129" height="36" fill="white"/>
</clipPath>
</defs>
</svg>
