<svg width="147" height="20" viewBox="0 0 147 20" fill="none" xmlns="http://www.w3.org/2000/svg">
<path fill-rule="evenodd" clip-rule="evenodd" d="M12.899 0L9.10521 7.58192H9.06057L8.8932 0H2.90117L0 14.1017H3.97237L5.8916 4.38418H5.92508L6.43836 14.1017H9.60733L14.1711 4.38418H14.2157L12.0622 14.1017H16.0457L19.0027 0H12.899Z" fill="#333030"/>
<path fill-rule="evenodd" clip-rule="evenodd" d="M16.5781 14.1003H20.2046L21.0973 12.428H24.8688L25.0585 14.1003H28.5622L26.7657 2.38281H23.262L16.5781 14.1003ZM24.1881 6.40541H24.2216L24.6121 9.91954H22.3916L24.1881 6.40541Z" fill="#333030"/>
<path fill-rule="evenodd" clip-rule="evenodd" d="M29.6001 14.1003H33.1597L34.945 5.38846H38.1474L38.7723 2.38281H28.7856L28.1719 5.38846H31.3855L29.6001 14.1003Z" fill="#333030"/>
<path fill-rule="evenodd" clip-rule="evenodd" d="M40.4283 14.1003H43.9878L45.7731 5.38846H48.9756L49.6004 2.38281H39.6137L39 5.38846H42.2136L40.4283 14.1003Z" fill="#333030"/>
<path fill-rule="evenodd" clip-rule="evenodd" d="M53.3448 5.17726H55.2752C56.2014 5.17726 56.4692 5.73093 56.4692 6.19421C56.4692 6.89477 55.9224 7.50494 54.7396 7.50494H52.865L53.3448 5.17726ZM48 14.0925H51.5037L52.3518 10.0134H53.8916C54.8847 10.0134 55.331 10.4767 55.331 11.0756C55.331 11.6631 55.1525 12.3863 55.1525 12.94C55.1525 13.4597 55.1637 13.7874 55.2976 14.0925H58.7009C58.4107 13.4033 58.5335 12.2055 58.5335 11.1095C58.5335 10.0134 58.3884 9.00777 57.3395 8.71398V8.68009C59.0133 8.3976 60.0399 7.15466 60.0399 5.44845C60.0399 2.97387 58.3996 2.375 56.2683 2.375H50.399L48 14.0925Z" fill="#333030"/>
<path fill-rule="evenodd" clip-rule="evenodd" d="M59.5234 14.0968H69.2089L69.8226 11.1025H63.6967L64.0091 9.63356H69.5771L70.1462 6.8539H64.5893L64.9018 5.38498H70.8938L71.4852 2.39062H61.9336L59.5234 14.0968Z" fill="#333030"/>
<path fill-rule="evenodd" clip-rule="evenodd" d="M81.2283 5.92077C81.2953 3.02812 79.0748 2.10156 76.6088 2.10156C74.2767 2.10156 71.7549 3.3106 71.7549 5.95467C71.7549 7.90947 73.1162 8.66653 74.5222 9.14111C76.129 9.68348 77.3117 9.79648 77.3117 10.6552C77.3117 11.4236 76.4525 11.7852 75.7607 11.7852C75.1805 11.7852 74.7565 11.7513 74.444 11.4914C74.1539 11.1976 74.0089 10.8021 74.0089 10.1581H70.5609C70.4159 13.1411 72.8149 14.3727 75.4706 14.3727C77.9812 14.3727 80.6816 13.0394 80.6816 10.2259C80.6816 8.83603 80.0009 7.71738 77.9924 6.99422C76.8543 6.58744 75.1247 6.53094 75.1247 5.64958C75.1247 4.88122 75.9058 4.70043 76.4972 4.70043C76.8989 4.70043 77.2783 4.76823 77.5349 4.96032C77.7916 5.15241 77.9589 5.45749 77.9366 5.93207H81.2283V5.92077Z" fill="#333030"/>
<path fill-rule="evenodd" clip-rule="evenodd" d="M91.8768 5.92077C91.9437 3.02812 89.7232 2.10156 87.2572 2.10156C84.9251 2.10156 82.4033 3.3106 82.4033 5.95467C82.4033 7.90947 83.7646 8.66653 85.1706 9.14111C86.7774 9.68348 87.9602 9.79648 87.9602 10.6552C87.9602 11.4236 87.101 11.7852 86.4092 11.7852C85.8289 11.7852 85.4049 11.7513 85.0925 11.4914C84.8024 11.1976 84.6573 10.8021 84.6573 10.1581H81.2094C81.0643 13.1411 83.4634 14.3727 86.1191 14.3727C88.6297 14.3727 91.33 13.0394 91.33 10.2259C91.33 8.83603 90.6493 7.71738 88.6408 6.99422C87.5027 6.58744 85.7731 6.53094 85.7731 5.64958C85.7731 4.88122 86.5542 4.70043 87.1456 4.70043C87.5473 4.70043 87.9267 4.76823 88.1833 4.96032C88.44 5.15241 88.6074 5.45749 88.5851 5.93207H91.8768V5.92077Z" fill="#333030"/>
<path fill-rule="evenodd" clip-rule="evenodd" d="M92.6562 14.0904H96.9522L98.0569 8.72316H103.536L104.216 5.36723H98.7375L99.1058 3.61582H105.566L106.303 0H95.5574L92.6562 14.0904Z" fill="#333030"/>
<path fill-rule="evenodd" clip-rule="evenodd" d="M104.547 14.0904H108.832L111.722 0H107.426L104.547 14.0904Z" fill="#333030"/>
<path fill-rule="evenodd" clip-rule="evenodd" d="M117.271 3.35942H119.592C120.708 3.35942 121.031 4.02609 121.031 4.57976C121.031 5.42722 120.373 6.16168 118.945 6.16168H116.68L117.271 3.35942ZM110.844 14.0939H115.05L116.066 9.17863H117.918C119.112 9.17863 119.659 9.7323 119.659 10.4668C119.659 11.1786 119.447 12.0487 119.447 12.7154C119.447 13.3481 119.469 13.7436 119.625 14.0939H123.72C123.375 13.269 123.52 11.8227 123.52 10.5007C123.52 9.17863 123.341 7.96959 122.08 7.61931V7.57411C124.089 7.23513 125.338 5.7436 125.338 3.6871C125.338 0.704052 123.375 -0.0078125 120.797 -0.0078125H113.745L110.844 14.0939Z" fill="#333030"/>
<path fill-rule="evenodd" clip-rule="evenodd" d="M125.094 14.0904H129.066L130.974 4.38418H131.019L131.521 14.0904H134.701L139.254 4.38418H139.298L137.156 14.0904H141.128L144.096 0H137.993L134.188 7.58192H134.154L133.976 0H127.995L125.094 14.0904Z" fill="#333030"/>
<path fill-rule="evenodd" clip-rule="evenodd" d="M92.1794 16.7341C92.1794 16.7341 104.32 15.333 119.383 15.0618C134.536 14.7906 140.807 16.0449 140.807 16.0449L140.484 17.7511C140.484 17.7511 134.313 16.5308 119.417 16.8019C104.431 17.0731 90.6172 19.9997 90.6172 19.9997L92.1794 16.7341Z" fill="#333030"/>
<path fill-rule="evenodd" clip-rule="evenodd" d="M145.421 1.22034H145.666C145.878 1.22034 146.068 1.20904 146.068 0.971751C146.068 0.768361 145.889 0.734463 145.733 0.734463H145.421V1.22034ZM145.186 0.542373H145.766C146.124 0.542373 146.291 0.689265 146.291 0.983051C146.291 1.25424 146.124 1.37853 145.889 1.40113L146.324 2.0791H146.068L145.655 1.42373H145.409V2.0791H145.175V0.542373H145.186ZM145.688 2.41808C146.291 2.41808 146.748 1.9322 146.748 1.29943C146.748 0.677966 146.291 0.19209 145.688 0.19209C145.086 0.19209 144.617 0.677966 144.617 1.29943C144.628 1.9435 145.086 2.41808 145.688 2.41808ZM145.688 0C146.391 0 146.983 0.564972 146.983 1.29943C146.983 2.0565 146.391 2.62147 145.688 2.62147C144.985 2.62147 144.383 2.0565 144.383 1.29943C144.394 0.564972 144.985 0 145.688 0Z" fill="#333030"/>
</svg>
