<svg width="50" height="51" viewBox="0 0 50 51" fill="none" xmlns="http://www.w3.org/2000/svg">
<path d="M32.0196 27.8615C31.7894 29.2703 31.4442 29.8166 30.725 30.5354C31.847 30.6217 32.8826 30.6217 33.6881 30.6217C35.8458 30.6217 37.3993 30.0179 38.7514 28.724C40.2762 27.2577 41.1105 25.4175 41.1105 23.5774C41.1105 20.9609 39.5857 19.3796 36.7376 19.3221C36.1335 19.2933 35.5006 19.2933 34.8964 19.3221C34.9252 19.1783 34.954 19.0346 34.9827 18.862C35.0403 18.5458 35.0978 18.2582 35.1553 17.9995C35.443 18.057 35.702 18.0857 35.9609 18.0857C37.5432 18.0857 38.6939 17.3094 38.6939 16.3606C38.6939 15.7856 38.2624 15.4405 37.3705 15.4405C36.1623 15.4405 35.1266 16.0731 34.3211 17.2807C33.7169 17.0794 33.084 16.7631 32.4223 16.4181C32.7675 15.9006 32.9402 15.2968 32.9402 14.6355C32.9402 13.4566 32.2209 12.0765 30.9551 10.9264C33.084 10.9264 34.6087 11.8753 34.6087 13.1116C34.6087 13.5716 34.3786 13.8017 33.9471 13.8017C33.832 13.8017 33.7169 13.7729 33.6306 13.7442L33.6018 13.8017C33.9183 14.0604 34.3786 14.2042 34.8101 14.2042C35.5293 14.2042 35.9609 13.8304 35.9609 13.2266C35.9609 11.7603 33.5731 10.4089 30.9551 10.4089C30.7825 10.4089 30.6099 10.4089 30.4373 10.4377C28.9989 9.34507 27.0426 8.56876 24.6835 8.56876C22.2957 8.59752 20.7135 9.51758 20.7135 10.9264C20.7135 10.9552 20.7135 10.9839 20.7135 11.0414C20.6272 11.0414 20.5409 11.0414 20.4545 11.0414C16.8872 11.0127 14.672 12.4216 14.672 14.4342C14.672 14.6067 14.7008 14.7505 14.7296 14.8942C13.435 15.8431 12.4281 17.3669 11.9678 19.3508C10.9321 19.4371 10.2129 19.7246 9.3786 20.4147C8.5443 21.076 8.19908 21.6222 8.19908 22.1398C8.19908 22.5711 8.37169 22.8873 8.77445 23.1749C9.14845 22.8298 9.55121 22.5423 10.0403 22.2835C9.72382 22.0823 9.55121 21.766 9.55121 21.421C9.55121 20.8747 9.98274 20.5584 10.7883 20.5297C11.1047 20.5009 11.4499 20.5009 11.7952 20.5009C11.4499 22.8011 11.0759 25.5038 10.6732 27.8615C10.4143 29.3566 10.1554 29.8741 9.4649 30.6217C10.1266 30.6504 10.9609 30.6792 11.5938 30.6792C12.2842 30.6792 12.6295 30.5354 13.0035 30.1904C13.3487 29.8741 13.6651 29.5291 13.9816 29.0978L13.9241 29.0403C13.6651 29.2703 13.4062 29.4141 12.8308 29.4141C12.6295 29.4141 12.3993 29.4141 12.1692 29.4141C12.313 28.149 12.4568 26.8839 12.6295 25.6188C13.1185 25.6476 13.5788 25.6763 14.0391 25.6476C14.8446 27.3152 15.7365 29.0116 16.8585 30.9667C17.2037 31.5705 17.5777 32.1168 17.9517 32.6343C15.2762 33.2956 13.6651 34.6182 13.6651 35.9696C13.6651 37.2922 15.1036 38.356 17.8941 38.356C18.1818 38.356 18.4695 38.3273 18.7572 38.2985C19.4764 40.0524 22.1519 41.4612 25.3452 41.4612C28.9701 41.4612 31.5593 39.9086 31.8182 37.9822C34.5512 37.4072 36.1047 36.0271 36.1047 34.7907C36.1047 33.9282 35.3567 33.0656 33.3717 33.0656C32.1059 33.0656 30.7537 33.4394 29.3441 33.9857C27.6755 32.8931 25.2014 32.1455 22.0081 32.1455C21.145 32.1455 20.3107 32.203 19.5627 32.3181C19.4764 32.203 19.4189 32.088 19.3613 31.973C18.0667 29.7591 16.8297 27.3152 15.6789 24.8425C17.2037 23.7499 17.8941 22.6286 17.8941 21.536C17.8941 20.2134 16.916 19.4083 15.1899 19.3796C14.6433 19.3796 14.0967 19.3508 13.5788 19.3796C13.6076 19.1496 13.6651 18.8908 13.6939 18.6608C13.9241 17.3094 14.3268 16.3031 14.931 15.613C15.5063 16.8494 17.0023 17.7407 18.6997 17.7407C19.9367 17.7407 21.3176 17.2519 22.6985 16.2743C24.3671 17.1944 26.2371 18.1432 28.7687 18.1432C30.2934 18.1432 31.4442 17.6257 32.1634 16.8781C32.8251 17.2519 33.458 17.5682 34.0909 17.7982C33.832 18.287 33.6018 18.8333 33.4292 19.4371C32.5662 19.5521 31.8757 19.8971 31.099 20.5297C30.2359 21.2485 29.977 21.7085 29.977 22.2835C29.977 22.5998 30.1784 23.0023 30.4948 23.2036C30.8688 22.8586 31.3003 22.5423 31.8182 22.2835C31.5017 22.0535 31.3291 21.7373 31.3291 21.421C31.3291 20.9034 31.7319 20.5872 32.5374 20.5584C32.7388 20.5584 32.9689 20.5297 33.1703 20.5297C33.1128 20.7884 33.084 21.076 33.0265 21.3635C32.71 23.1749 32.3936 25.5325 32.0196 27.8615ZM18.1818 37.6085C16.4269 37.6085 15.5351 36.7746 15.5351 35.7396C15.5351 34.6182 16.5132 33.6407 18.3544 33.1231C18.9298 33.8419 19.5627 34.4745 20.2244 35.0495C19.1887 35.5958 18.5558 36.4009 18.5558 37.3209C18.5558 37.4359 18.5558 37.5222 18.5846 37.6372C18.4407 37.5797 18.2969 37.6085 18.1818 37.6085ZM30.1208 37.3784C30.1208 37.4647 30.1208 37.5509 30.0921 37.6372C29.7468 37.666 29.3441 37.6947 28.9413 37.6947C28.6249 37.6947 28.3084 37.6947 27.9919 37.666C27.9919 37.6372 27.9919 37.6085 27.9919 37.5797C27.9919 36.8034 27.618 36.0846 26.9563 35.5383C27.618 35.2508 28.2509 34.992 28.855 34.762C29.7181 35.5095 30.1208 36.4584 30.1208 37.3784ZM26.7261 37.0334C26.7261 37.1772 26.6974 37.2922 26.6686 37.4072C25.8631 37.2347 25.0863 36.9759 24.3383 36.6021C24.9712 36.3434 25.6041 36.0558 26.2371 35.7971C26.5535 36.1421 26.7261 36.5734 26.7261 37.0334ZM23.7629 36.3146C23.13 35.9696 22.5259 35.5383 21.9793 35.0783C22.4108 34.9057 22.9287 34.8195 23.504 34.8195C24.4534 34.8195 25.2589 35.0495 25.8343 35.452C25.1438 35.7396 24.4534 36.0271 23.7629 36.3146ZM22.7273 36.6884C21.9505 36.9759 21.1738 37.2059 20.3682 37.3497C20.3682 37.3209 20.3682 37.2922 20.3682 37.2634C20.3682 36.6309 20.5984 36.0558 21.0299 35.6533C21.5765 36.0558 22.1231 36.4009 22.7273 36.6884ZM25.3165 40.8574C22.6985 40.8574 20.7998 39.6786 20.4258 37.9247C21.4039 37.6947 22.3533 37.3784 23.3314 37.0047C24.3096 37.4359 25.3165 37.7522 26.3809 37.9535C26.0932 38.2985 25.6041 38.5285 24.9712 38.5285C24.3383 38.5285 23.878 38.3273 23.5616 37.9822L23.4753 38.0397C24.0219 38.8735 24.7986 39.3048 25.8055 39.3048C26.7837 39.3048 27.5604 38.816 27.8481 38.126C28.1933 38.1547 28.5673 38.1835 28.9413 38.1835C29.3153 38.1835 29.6605 38.1547 30.0058 38.1547C29.5455 39.7361 27.7043 40.8574 25.3165 40.8574ZM32.4799 33.8132C33.7457 33.8132 34.2635 34.3882 34.2635 35.1645C34.2635 36.0846 33.6018 36.9472 31.7894 37.3784C31.7031 36.3434 31.0702 35.2508 29.8907 34.3307C30.84 34.0144 31.7319 33.8132 32.4799 33.8132ZM22.0081 32.6056C25 32.5768 27.1001 33.2956 28.4235 34.2732C27.7906 34.532 27.1577 34.8195 26.5247 35.107C25.7192 34.5895 24.626 34.2732 23.4177 34.2732C22.6985 34.2732 22.0368 34.3595 21.4327 34.532C20.8861 33.9857 20.3682 33.4106 19.9079 32.7493C20.5121 32.6631 21.2313 32.6343 22.0081 32.6056ZM14.183 20.5009C15.5351 20.5297 16.2255 21.1622 16.2255 22.3698C16.2255 23.6061 15.4776 24.3825 14.298 24.3825C13.7802 24.3825 13.2911 24.3537 12.7733 24.325C12.9459 23.0311 13.1473 21.766 13.3774 20.5009C13.6364 20.5009 13.8953 20.5009 14.183 20.5009ZM31.6743 14.0604C31.6743 14.6067 31.5305 15.153 31.1853 15.6418C30.5811 15.268 29.9482 14.8367 29.2865 14.4342C29.6893 14.0604 29.9194 13.6004 29.9194 13.0253C29.9194 12.2778 29.5455 11.6452 28.9413 11.214C29.3441 11.0702 29.7468 10.9839 30.1784 10.9264C31.1277 11.8465 31.6743 12.9678 31.6743 14.0604ZM22.267 11.6452C23.13 11.8178 23.9931 12.0765 24.8274 12.4503C24.3383 12.7666 23.9068 13.1404 23.4465 13.5716L23.4177 13.6004C22.756 13.0829 22.2957 12.3928 22.267 11.6452ZM25.8343 13.3991C25.9494 13.2841 26.0357 13.1979 26.1507 13.0829C26.7549 13.3991 27.3303 13.7442 27.8769 14.0892C27.5029 14.3479 26.9563 14.4917 26.2946 14.4917C25.8055 14.4917 25.3165 14.4055 24.8562 14.2904L25.8343 13.3991ZM26.496 12.7666C27.0426 12.2778 27.5604 11.904 28.0495 11.6452C28.3372 11.9615 28.5098 12.3928 28.5098 12.8241C28.5098 13.1979 28.3947 13.5141 28.2221 13.7729C27.6755 13.4279 27.1001 13.0829 26.496 12.7666ZM25.374 9.20131C27.1001 9.20131 28.5673 9.71885 29.6605 10.5239C29.1715 10.5814 28.6824 10.6964 28.1933 10.8402C27.733 10.6677 27.1864 10.5527 26.5823 10.5527C26.0644 10.5527 25.6904 10.6102 25.3165 10.7252L25.3452 10.8114C25.5178 10.7827 25.6904 10.7827 25.8918 10.7827C26.4672 10.7827 26.9563 10.8977 27.3878 11.099C26.6686 11.3577 25.9781 11.7027 25.3165 12.134C24.3671 11.7027 23.3602 11.3577 22.3533 11.1565C22.4684 9.94887 23.5903 9.20131 25.374 9.20131ZM20.5696 11.4727C20.6272 11.4727 20.6847 11.4727 20.771 11.4727C21.0587 12.364 21.9217 13.2554 23.0437 13.9167L21.7779 15.0955C20.5409 14.4342 19.275 13.8304 17.8078 13.8304C17.2612 13.8304 16.7434 13.9167 16.2255 14.0892C16.6571 12.4503 18.2394 11.4727 20.5696 11.4727ZM18.153 17.1082C17.0311 17.1082 16.1392 16.3031 16.1392 14.9805C16.1392 14.8655 16.1392 14.7792 16.168 14.6642C16.6571 14.463 17.1749 14.3767 17.7791 14.3767C19.0736 14.3767 20.2244 14.8655 21.4039 15.498C19.9942 16.7344 19.16 17.1082 18.153 17.1082ZM27.4741 17.1369C25.8055 17.1369 24.4246 16.5331 23.1588 15.8431C23.504 15.5843 23.8205 15.2968 24.1657 14.9805L24.5397 14.6355C25.374 14.9517 26.2658 15.1243 27.1001 15.1243C27.8193 15.1243 28.4235 14.9805 28.9125 14.7217C29.5742 15.153 30.2359 15.613 30.8976 16.0156C30.1784 16.6769 29.0852 17.1369 27.4741 17.1369ZM36.8815 16.0156C37.2842 16.0156 37.5144 16.2743 37.5144 16.6194C37.5144 17.1944 36.9102 17.5682 35.9609 17.5682C35.7307 17.5682 35.5006 17.5394 35.2417 17.5107C35.6444 16.5044 36.1623 16.0156 36.8815 16.0156ZM35.7595 20.5009C38.2048 20.5872 39.4419 21.9098 39.4419 24.44C39.4419 27.3439 37.8884 29.2703 35.328 29.2991C34.7238 29.3278 34.1197 29.2991 33.5155 29.2128C33.8608 26.2801 34.2635 23.3761 34.7238 20.4722C35.069 20.5009 35.4143 20.5009 35.7595 20.5009ZM22.5547 21.9673C22.1231 24.4112 21.7779 26.8839 21.4615 29.3566C21.7204 29.3566 21.9505 29.3853 22.1807 29.3853C22.756 29.3853 23.015 29.2416 23.2739 29.0116L23.3314 29.0691C23.015 29.5003 22.6697 29.8741 22.3533 30.1616C21.9505 30.5067 21.6341 30.6504 20.9436 30.6504C20.3107 30.6504 19.6778 30.6217 19.0449 30.5929C19.5052 30.0754 19.7641 29.5291 19.9655 28.3215C20.397 25.7626 20.771 23.2036 21.0875 20.6447C20.8573 20.6447 20.6272 20.6159 20.397 20.6159C19.8792 20.6159 19.5915 20.7022 19.3326 20.9609L19.2463 20.9034C19.5339 20.5297 19.8504 20.1846 20.1956 19.8684C20.6272 19.4658 21.0012 19.3221 21.7779 19.3221C22.4396 19.3221 23.13 19.3508 23.8205 19.3796C23.0437 20.0696 22.756 20.6734 22.5547 21.9673ZM26.0932 21.7948C26.0932 22.3123 26.2946 22.7436 26.87 23.3761L28.2796 24.8712C28.9989 25.6476 29.2865 26.2801 29.2865 27.0852C29.2865 28.8678 27.359 30.7079 25.374 30.7079C24.7123 30.7079 24.1945 30.5354 23.7917 30.3054C24.3096 29.6441 24.6835 28.9828 24.9712 28.2065H25.0575C25.0863 28.9828 25.6041 29.4141 26.4672 29.4141C27.359 29.4141 27.9344 28.8678 27.9344 27.9765C27.9344 27.4302 27.733 26.9989 27.1577 26.3951L25.9781 25.13C25.0863 24.2099 24.7411 23.5486 24.7411 22.7148C24.7411 20.7884 26.8124 19.2071 29.0564 19.2358C29.6893 19.2646 30.0058 19.4083 30.0058 19.6671C30.0058 19.8396 29.9482 19.9546 29.7181 20.2134C29.0852 20.9609 28.9701 21.1622 28.9125 21.651H28.8262C28.8262 20.9897 28.4235 20.5297 27.5029 20.5297C26.6398 20.5009 26.0932 21.0185 26.0932 21.7948ZM22.8136 45.1128C21.7491 44.9978 21.0299 45.5153 20.9436 46.3204C20.8861 46.8091 21.0587 47.1829 21.4615 47.4992C20.8573 47.7005 20.5984 48.0455 20.5696 48.3905C20.4833 49.0518 20.9436 49.7131 22.1519 49.8281C23.3026 49.9431 24.0794 49.3968 24.1657 48.5918C24.2232 48.0742 23.9931 47.6142 23.4177 47.2979C23.9643 47.1254 24.2232 46.8091 24.2808 46.4354C24.3671 45.8028 23.878 45.2278 22.8136 45.1128ZM23.13 48.7643C23.1013 49.1093 22.8136 49.3106 22.3245 49.2531C21.7491 49.1956 21.519 48.8218 21.5765 48.4193C21.6053 48.1605 21.6916 47.988 21.8642 47.7867L21.893 47.8155L22.641 48.1605C23.0725 48.3043 23.1588 48.5055 23.13 48.7643ZM23.3314 46.5504C23.3026 46.7804 23.2163 46.9817 23.0437 47.1542L22.4684 46.8666C22.0368 46.6654 21.9505 46.4929 21.9793 46.2053C22.0081 45.8891 22.267 45.6878 22.6697 45.7166C23.1013 45.8028 23.389 46.0903 23.3314 46.5504ZM45.3682 39.4486C44.8792 39.9374 44.4476 40.4837 44.1024 41.0875C44.0161 40.5699 43.8723 40.3687 43.2394 39.8511C42.7503 39.4486 42.2325 39.0461 41.7434 38.6435C41.168 38.2122 40.9666 38.126 40.4488 38.0972C40.9091 37.666 41.2831 37.1772 41.5708 36.6309C41.7146 37.1484 41.8585 37.2922 42.4051 37.7522C42.9229 38.1547 43.412 38.5285 43.9298 38.9023C44.6203 39.3911 44.8792 39.5061 45.3682 39.4486ZM49.1082 31.6855C48.9356 32.088 48.7917 32.4906 48.6191 32.9218C48.3602 33.5831 48.13 34.302 47.8999 35.0495C47.5547 34.7907 47.1807 34.5895 46.7204 34.5032V34.3882C47.1807 34.3307 47.4396 34.1007 47.8136 32.9794C47.4971 32.8356 47.1807 32.7206 46.6916 32.5481C46.3751 33.4681 46.3464 33.7269 46.4039 34.1294C46.0587 33.8994 45.6847 33.7557 45.2819 33.6694C45.5696 33.4681 45.771 33.2381 46.0875 32.3181C45.5984 32.1455 45.2819 32.0593 45.023 32.0018C44.4764 33.3244 44.5052 33.5256 44.8216 33.8419L44.7641 33.9282C44.3613 33.6982 44.0161 33.4394 43.6709 33.1519C43.8723 32.7206 44.0736 32.2605 44.2175 31.8293C44.4189 31.2542 44.5627 30.7367 44.6778 30.2191C44.9079 30.6217 45.0806 30.7942 45.8573 31.053C46.5478 31.3117 47.1519 31.4842 47.756 31.6568C48.4753 31.8868 48.7342 31.858 49.1082 31.6855ZM32.5374 45.5728L33.5155 46.0041L33.084 46.9817L32.1059 46.5504L32.5374 45.5728ZM42.0886 39.9374C43.0667 40.9725 42.9517 42.4388 41.7434 43.5602C41.2831 43.9914 40.9379 44.1639 40.6502 44.4227C40.5639 44.509 40.5063 44.5952 40.42 44.7102C40.2762 44.1927 40.046 43.8477 39.6145 43.4451L39.672 43.3876C40.1899 43.6177 40.7653 43.5602 41.3119 43.0426C41.9735 42.4388 41.9735 41.6338 41.2831 40.8862C40.4488 40.0236 39.5282 39.9949 38.9241 40.5699C38.8377 40.6562 38.7802 40.7424 38.7227 40.8287C38.8377 40.9725 38.9816 41.1162 39.0967 41.26C39.4994 41.6913 39.6145 41.7488 40.1899 41.8638C39.557 42.2663 39.1254 42.6976 38.8665 43.0714C38.7514 42.6401 38.6364 42.3813 38.0898 41.8063C37.9171 41.605 37.687 41.4325 37.4568 41.2887C37.7733 40.8862 38.0898 40.4262 38.4925 40.0524C39.7008 38.9598 41.1105 38.9023 42.0886 39.9374ZM29.8331 44.7965C30.351 44.6815 30.84 44.5377 31.3291 44.3365C31.1853 44.9115 31.1565 45.2853 31.099 46.0616C31.0702 46.6366 31.0702 47.1829 31.0127 47.873C30.9551 48.8793 30.5524 49.3681 29.6318 49.5694C29.4304 49.6269 29.229 49.6269 28.9989 49.6556L28.9701 49.5694C29.4879 49.4256 29.7468 49.1381 29.8619 48.0455C29.9482 47.4129 29.9482 46.4354 29.9194 45.4578C28.9988 45.7166 28.7687 45.9466 28.5961 46.4929L28.5098 46.4641C28.5098 45.8603 28.481 45.4578 28.3659 44.9978C28.855 44.9978 29.3441 44.9115 29.8331 44.7965ZM26.4384 45.314C26.9563 45.2853 27.4741 45.2278 27.9632 45.1128C27.733 45.6591 27.618 46.0041 27.4453 46.7804C27.3303 47.3267 27.2152 47.873 27.0426 48.563C26.8124 49.5406 26.3521 49.9431 25.374 50.0006C25.1726 50.0294 24.9425 50.0006 24.7411 49.9719V49.8569C25.2589 49.7994 25.5754 49.5406 25.8918 48.5055C26.0644 47.873 26.2371 46.9529 26.3809 45.9753C25.4315 46.0903 25.1726 46.2629 24.9137 46.7804L24.8274 46.7516C24.9425 46.1478 24.9425 45.7453 24.9137 45.2565C25.4603 45.3428 25.9206 45.3428 26.4384 45.314ZM39.7583 45.0553L39.8159 45.1703C39.298 45.429 38.9241 45.7453 38.5788 46.0328C37.3993 45.6878 36.2486 45.3715 35.069 45.084C35.2417 45.4003 35.4143 45.7166 35.5869 46.0328C35.9321 46.6366 36.191 46.8666 36.8239 47.0104C36.1047 47.2692 35.6157 47.5279 35.1841 47.8442C35.2129 47.4129 35.1266 47.0679 34.7814 46.3779C34.2923 45.429 33.832 44.4802 33.3429 43.5314L33.4292 43.4451C34.8101 43.8477 36.2198 44.2502 37.6582 44.5665C37.4281 44.1639 37.1692 43.7614 36.9102 43.3589C36.4212 42.5826 36.076 42.4388 35.5581 42.3238C36.191 42.0363 36.6513 41.72 37.1404 41.3462C37.0829 41.835 37.1116 42.18 37.5719 42.8988C37.8596 43.3589 38.1473 43.8189 38.435 44.2215C38.9241 44.9978 39.298 45.199 39.7583 45.0553ZM46.6053 37.6372C46.3751 38.0397 46.1738 38.2122 46.0587 38.471C45.9724 38.6435 45.9436 38.7298 45.9148 38.8735C45.6847 38.6148 45.3107 38.2698 44.7641 38.011L44.7929 37.9247C45.3107 38.011 45.7135 37.781 46.0011 37.2922C46.2601 36.8321 46.1738 36.5159 45.9148 36.3721C45.7135 36.2571 45.5121 36.2859 45.1956 36.5446L44.6778 36.9759C44.0737 37.4934 43.5846 37.5509 43.0092 37.2347C42.29 36.8321 42.0598 35.9121 42.664 34.8482C42.8941 34.4457 43.0955 34.2732 43.4407 33.6694C43.7284 34.0719 44.0737 34.3307 44.6203 34.532L44.5915 34.6182C43.9298 34.532 43.4983 34.7907 43.2106 35.3083C42.9517 35.7396 43.038 36.0558 43.3257 36.1996C43.527 36.3146 43.7284 36.2859 44.0161 36.0558L44.5627 35.5958C45.1669 35.0783 45.6847 35.0495 46.2313 35.337C46.9505 35.7108 47.1807 36.5734 46.6053 37.6372ZM0.89183 18.2295C1.0069 17.7407 1.15075 17.5394 1.20829 17.2807C1.26582 17.1082 1.26582 16.9931 1.23705 16.8494C1.52474 17.0507 1.98504 17.2807 2.56041 17.3957V17.4819C2.04258 17.5394 1.69735 17.8557 1.55351 18.4308C1.40967 18.9483 1.58228 19.2358 1.86997 19.2933C2.10012 19.3508 2.27273 19.2933 2.50288 18.9483L2.87687 18.3733C3.33717 17.712 3.79747 17.5394 4.40161 17.712C5.20713 17.9132 5.63867 18.7758 5.35098 19.9259C5.2359 20.3859 5.06329 20.5872 4.91945 21.2772C4.54545 20.9609 4.11392 20.8172 3.56732 20.7309V20.6447C4.229 20.5584 4.57422 20.2134 4.71807 19.6383C4.86191 19.1496 4.6893 18.8908 4.37284 18.8045C4.14269 18.747 3.97008 18.8333 3.73993 19.1208L3.33717 19.6959C2.87687 20.3572 2.3878 20.5297 1.78366 20.3572C1.03567 20.1559 0.575374 19.3796 0.89183 18.2295ZM47.7273 23.6637L48.504 24.44L47.7273 25.2163L46.9505 24.44L47.7273 23.6637ZM48.1013 19.7821C48.8493 19.6096 49.0794 19.4658 49.3096 19.1496C49.3383 19.5808 49.3959 20.0121 49.4822 20.4722C49.5972 21.1622 49.7411 21.9673 49.9137 22.7436C49.4822 22.6861 49.0506 22.6861 48.5903 22.8298L48.5328 22.7436C48.878 22.4848 49.0219 22.1398 48.7917 20.9322C48.3027 20.9897 47.8424 21.0472 47.3533 21.1047C47.4971 22.1398 47.6122 22.3986 47.8711 22.7148C47.4684 22.6861 47.0656 22.7436 46.6628 22.8586C46.8354 22.4561 46.8642 22.1398 46.7204 21.191C46.6053 21.2197 46.4902 21.2485 46.3751 21.2485C45.771 21.3635 45.4545 21.536 45.0518 21.9098C44.9942 21.2485 44.9079 20.6159 44.7066 19.9834C45.1093 20.2134 45.3395 20.2709 46.145 20.1559C46.8642 20.0409 47.4971 19.8971 48.1013 19.7821ZM1.63982 16.0443C1.98504 15.4118 2.27273 14.7505 2.44534 14.1179C2.64672 14.578 2.81933 14.7792 3.50978 15.1243C4.05639 15.383 4.60299 15.6418 5.17837 15.8718C5.37975 15.9581 5.58113 16.0443 5.81128 16.1018C6.30035 15.2393 6.27158 14.8942 5.92635 14.5205L5.98389 14.4342C6.35788 14.7217 6.70311 15.038 7.01956 15.383C6.81818 15.7856 6.58803 16.2168 6.38665 16.6194C6.1565 17.1082 6.04143 17.5107 5.89758 17.942C5.63867 17.4532 5.46605 17.2807 4.7756 16.9644C4.20023 16.7056 3.65363 16.4469 3.04948 16.2456C2.35903 15.9581 2.07135 15.9293 1.63982 16.0443ZM43.8723 17.6544C44.4189 19.0633 45.6847 19.6383 47.0081 19.1208C48.3314 18.6033 48.878 17.3957 48.3314 15.9868C47.7848 14.578 46.519 14.0029 45.1956 14.5205C43.8723 15.0092 43.3257 16.2168 43.8723 17.6544ZM47.6985 16.1593C47.9574 16.7919 47.6122 17.5394 46.4327 17.9707C45.397 18.3733 44.7641 18.057 44.534 17.4532C44.275 16.7919 44.6203 16.0731 45.7998 15.6418C46.8354 15.2393 47.4396 15.5555 47.6985 16.1593ZM1.66858 29.2128C0.920599 29.3566 0.690449 29.5003 0.431531 29.7879C0.431531 29.3566 0.373993 28.9253 0.316456 28.4653C0.23015 27.7177 0.143844 26.9414 0 26.1076C0.431531 26.1938 0.89183 26.1938 1.32336 26.0788L1.3809 26.1651C0.978136 26.4239 0.834292 26.6826 1.03567 28.0627C1.3809 28.034 1.72612 28.0052 2.24396 27.9477C2.12888 26.8839 2.04258 26.5964 1.78366 26.2801C2.18642 26.3376 2.58918 26.3088 3.02071 26.1938C2.8481 26.5676 2.79056 26.8839 2.90564 27.8902C3.42348 27.8327 3.73993 27.7752 4.02762 27.7177C3.94131 25.9638 3.79747 25.7338 3.33717 25.5038L3.36594 25.4175C3.85501 25.475 4.3153 25.5613 4.71807 25.7051C4.74684 26.3089 4.7756 26.9126 4.83314 27.5164C4.89068 28.1202 5.00575 28.6378 5.1496 29.1553C4.74684 28.8965 4.51669 28.839 3.71116 28.9253C2.93441 29.0116 2.27273 29.0978 1.66858 29.2128ZM48.6191 26.2513C47.9574 26.2226 47.3245 26.1651 46.6628 26.0501C45.8861 25.9351 45.6559 25.7913 45.3395 25.475C45.3682 25.8488 45.3395 26.1651 45.2819 26.4814C45.2244 26.9414 45.1381 27.2289 45.0806 27.6602C44.8504 29.3278 45.7998 30.4492 47.1231 30.6504C48.3602 30.8229 49.4534 30.2191 49.6835 28.5515C49.7699 28.0052 49.7411 27.6602 49.8562 26.7976C49.9137 26.5101 49.9425 26.2801 50 26.0213C49.7123 26.2226 49.4246 26.3089 48.6191 26.2513ZM49.0794 28.1777C48.9643 29.0403 48.2163 29.4716 47.2094 29.3278C46.2313 29.1841 45.6272 28.5803 45.7422 27.8327C45.771 27.6027 45.8861 27.3439 46.0587 27.1427C47.0944 27.2289 48.1013 27.3439 49.1369 27.5164C49.1369 27.7465 49.1082 27.9765 49.0794 28.1777ZM41.6571 11.0127C42.1749 10.6677 42.664 10.2939 43.153 9.89136C43.786 9.37382 43.9586 9.17256 44.0736 8.74128C44.4476 9.37382 44.8792 9.94887 45.3107 10.4089C44.8504 10.3514 44.5627 10.3801 43.901 10.8114C43.3832 11.1565 42.8366 11.5302 42.3475 11.9328C42.1749 12.0765 42.0311 12.1915 41.916 12.3065C42.664 13.5429 42.9517 13.6579 43.412 13.6004L43.4407 13.7154C43.0092 13.8592 42.5489 14.0029 42.1174 14.0604C41.8297 13.5716 41.4845 13.0541 41.168 12.5653C40.8803 12.134 40.5926 11.8178 40.2762 11.4727C40.7652 11.5015 41.0242 11.444 41.6571 11.0127ZM44.3326 12.364L45.3682 12.6228L45.1093 13.6579L44.0736 13.3991L44.3326 12.364ZM28.3947 1.63949C28.5098 0.891935 28.5098 0.575661 28.2796 0.173131C28.9413 0.374396 29.6605 0.546909 30.2359 0.575661C29.8619 0.776926 29.7181 1.0932 29.5455 1.84076C29.4879 2.01327 29.4592 2.18578 29.4304 2.38705C30.0921 2.53081 30.7825 2.70332 31.4442 2.87583C31.5017 2.70332 31.5305 2.53081 31.588 2.3583C31.7606 1.61074 31.7606 1.29447 31.5305 0.920687C32.0771 1.1507 32.7676 1.32322 33.458 1.46698C33.084 1.72575 32.9114 2.01327 32.6812 2.73207C32.5086 3.30712 32.336 3.88216 32.1634 4.48596C31.9908 5.23351 31.9908 5.46353 32.2209 5.98107C31.588 5.7223 30.9551 5.54979 30.2647 5.43478C30.6962 5.14726 30.8688 4.88849 31.0702 4.19843C31.1277 3.99717 31.1853 3.76715 31.2428 3.56589C30.5811 3.39337 29.9194 3.22086 29.2578 3.0771C29.2002 3.27836 29.1715 3.50838 29.1139 3.7384C28.9701 4.4572 28.9988 4.77348 29.2578 5.23351C28.5961 5.0035 27.9344 4.88849 27.2727 4.83098C27.7043 4.48596 27.8193 4.28469 27.9919 3.53713C28.1933 2.81833 28.3084 2.21453 28.3947 1.63949ZM34.3786 7.01615C35.702 7.73495 37.0541 7.30367 37.7158 6.06733C38.3774 4.80223 37.9747 3.53713 36.6513 2.81833C35.328 2.09953 33.9758 2.53081 33.3142 3.76715C32.6525 5.061 33.0265 6.32609 34.3786 7.01615ZM34.4937 4.25594C35.0115 3.27836 35.6732 3.10585 36.2486 3.39337C36.8527 3.70965 37.0829 4.48596 36.5075 5.57854C35.9896 6.55611 35.2992 6.72862 34.7526 6.4411C34.1197 6.12483 33.9183 5.34852 34.4937 4.25594ZM12.3418 4.97474C12.687 5.52103 13.0035 6.09608 13.3199 6.67112C13.6651 7.38993 13.6939 7.61994 13.6076 8.07998C13.9241 7.84996 14.183 7.67745 14.4419 7.53369C14.8446 7.33242 15.1323 7.24616 15.5063 7.0449C16.9735 6.26859 17.3763 4.85973 16.7434 3.65214C16.168 2.53081 15.046 2.01327 13.5501 2.78958C13.061 3.04835 12.8021 3.27836 11.9965 3.6809C11.7376 3.82466 11.5362 3.91091 11.2773 4.02592C11.6801 4.14093 11.9102 4.31344 12.3418 4.97474ZM13.6651 3.47963C14.4419 3.0771 15.2186 3.45088 15.6789 4.3422C16.1392 5.23351 15.9954 6.06732 15.3049 6.41235C15.1036 6.52736 14.8159 6.58486 14.557 6.55611C14.0391 5.69355 13.5501 4.77348 13.0898 3.85341C13.2624 3.70965 13.4638 3.59464 13.6651 3.47963ZM38.435 9.83386C39.557 10.8402 40.9666 10.7827 41.916 9.71885C42.8654 8.65502 42.7791 7.33242 41.6571 6.32609C40.5351 5.31977 39.1254 5.37727 38.1761 6.4411C37.2267 7.50493 37.2842 8.82753 38.435 9.83386ZM39.2117 7.15991C39.9597 6.32609 40.6502 6.32609 41.1392 6.75738C41.6571 7.21741 41.6858 8.02247 40.8516 8.94254C40.1036 9.77635 39.4131 9.77635 38.9241 9.34507C38.4062 8.88504 38.4062 8.10873 39.2117 7.15991ZM6.55926 33.7269C6.38665 33.3819 6.24281 33.0944 6.1565 32.8068C6.01266 32.3756 5.95512 32.088 5.84005 31.6855C5.29344 30.1041 3.94131 29.5003 2.67549 29.9316C1.4672 30.3342 0.805524 31.3692 1.32336 32.9506C1.49597 33.4681 1.69735 33.7557 1.95627 34.6182C2.04258 34.9058 2.10012 35.107 2.18642 35.3658C2.35903 35.0208 2.58918 34.8195 3.3084 34.5032C3.91254 34.2444 4.51669 34.0144 5.12083 33.8132C5.86881 33.5544 6.12773 33.5544 6.55926 33.7269ZM2.27273 33.5831C2.18642 33.3819 2.10012 33.1806 2.01381 32.9794C1.72612 32.1455 2.21519 31.4267 3.16456 31.1105C4.11392 30.7942 4.91945 31.053 5.1496 31.7718C5.2359 32.0018 5.2359 32.2605 5.17837 32.5193C4.25777 32.9218 3.27963 33.2669 2.27273 33.5831ZM5.12083 11.9903C5.55236 12.5366 6.12773 13.3129 6.64557 14.1179C6.84695 14.4055 7.01956 14.7505 7.13464 15.0955C7.36479 14.6067 7.68124 14.1754 7.9977 13.8304C7.65247 13.7729 7.33602 13.6291 6.99079 13.1979C7.27848 12.7666 7.56617 12.364 7.88262 11.9615C8.458 12.1628 8.68815 12.4216 8.74568 12.7953C9.09091 12.1915 9.49367 11.7027 9.9252 11.2427C9.63752 11.214 9.34983 11.1852 9.06214 11.1277C7.71001 10.7827 6.35788 10.3801 5.00575 9.92011C4.80437 10.3514 4.51669 10.8402 4.14269 11.3577C4.45915 11.3577 4.7756 11.5302 5.12083 11.9903ZM7.22094 11.7603C7.01956 12.0478 6.78941 12.3353 6.58803 12.6516L5.52359 11.2427L7.22094 11.7603ZM19.5627 1.98452C19.4189 1.17946 19.9367 0.460652 21.1162 0.259387C21.6053 0.173131 21.8354 0.201883 22.0944 0.173131C22.267 0.144379 22.382 0.0868743 22.4971 0.02937C22.4396 0.374396 22.4108 0.863183 22.5547 1.46698L22.4684 1.49573C22.2094 1.06445 21.7779 0.863183 21.2025 0.949439C20.6847 1.0357 20.4833 1.29447 20.5409 1.58199C20.5696 1.812 20.7135 1.95577 21.1162 2.01327L21.7779 2.12828C22.5547 2.27204 22.8999 2.64582 23.015 3.24961C23.1588 4.05467 22.5834 4.83098 21.3751 5.00349C20.8861 5.08975 20.6559 5.03225 19.9655 5.14726C20.0806 4.68722 20.0518 4.22719 19.8792 3.6809L19.9655 3.65214C20.3107 4.22719 20.771 4.37095 21.3751 4.28469C21.8642 4.19843 22.0368 3.93966 22.0081 3.62339C21.9793 3.39337 21.8354 3.24961 21.4615 3.19211L20.771 3.0771C19.9942 2.99084 19.649 2.61706 19.5627 1.98452ZM23.5328 2.3583C23.5616 0.949439 24.5685 -0.0281344 26.0644 0.000617805C26.5823 0.000617805 26.8987 0.115626 27.1864 0.115626C27.3015 0.115626 27.4166 0.115626 27.5604 0.0581221C27.3303 0.546909 27.2152 0.949439 27.244 1.52448H27.1577C26.9275 0.949439 26.611 0.661918 26.0357 0.633165C25.3165 0.604413 24.7698 1.1507 24.7698 2.18578C24.7411 3.39337 25.374 3.96842 26.1795 3.96842C26.6974 3.96842 27.0426 3.7959 27.3015 3.33587L27.3878 3.36462C27.3303 3.59464 27.244 3.7959 27.1864 3.99717C27.0713 4.34219 26.9563 4.48596 26.7261 4.57221C26.5247 4.68722 26.2658 4.71597 25.9494 4.71597C24.4822 4.74473 23.504 3.85341 23.5328 2.3583ZM18.4695 3.99717L17.5201 3.47963L18.038 2.53081L18.9873 3.04835L18.4695 3.99717ZM0.0575374 22.9161C0.23015 22.2548 0.316456 21.5647 0.316456 20.8747C0.632911 21.2485 0.89183 21.3635 1.66858 21.4785C2.3015 21.5935 2.93441 21.651 3.56732 21.7373C4.28654 21.8235 4.48792 21.7948 4.94822 21.536C4.7756 22.1398 4.6893 22.7436 4.71807 23.3761C4.34407 23.0311 4.14269 22.9448 3.42348 22.8586C2.79056 22.7723 2.15765 22.7148 1.49597 22.6573C0.747986 22.5998 0.489068 22.6286 0.0575374 22.9161ZM19.5915 47.988C19.4476 48.7068 19.4476 48.9656 19.5915 49.3681C19.0161 49.1381 18.3544 48.9656 17.7791 48.9081C18.1243 48.6205 18.2394 48.3618 18.4695 47.6717C18.6709 47.0967 18.8147 46.4929 18.9586 45.9178C19.1024 45.2853 18.9873 44.9978 18.6709 44.739L18.6997 44.6527C19.3901 44.7965 19.9942 44.7965 20.5984 44.7677C20.3395 45.2565 20.2532 45.5441 20.023 46.3204C19.8504 46.8666 19.7066 47.4417 19.5915 47.988ZM1.49597 24.4112L2.27273 23.6349L3.04948 24.4112L2.27273 25.1875L1.49597 24.4112ZM17.2325 45.5728L17.664 46.5504L16.6858 46.9817L16.2543 46.0041L17.2325 45.5728ZM16.8872 43.6752C16.2543 43.4164 15.6789 43.1289 15.046 42.6688C15.1611 43.1864 15.1611 43.4739 14.8159 44.1639C14.7583 44.279 14.7008 44.4227 14.6145 44.5377C14.4131 44.4227 14.2405 44.3077 14.0391 44.1927C14.0679 43.6464 14.0679 43.1289 14.0391 42.6401C14.0104 42.1513 13.8665 41.95 13.4638 41.72C13.2624 41.605 12.9747 41.4612 12.7445 41.2887C12.2267 40.915 11.7664 40.4837 11.3349 39.9949C11.3349 40.5124 11.2198 40.7999 10.7307 41.3462C10.5869 41.5187 10.443 41.6913 10.2992 41.835C9.78136 41.375 9.29229 40.915 8.83199 40.4262C8.97583 40.2824 9.14845 40.1386 9.32106 39.9661C9.86766 39.4486 10.1266 39.3336 10.6444 39.3048C10.0978 38.8735 9.63751 38.3848 9.23475 37.8672C9.17721 38.4135 9.06214 38.6435 8.5443 39.1898C8.08401 39.6499 7.65247 40.0524 7.22094 40.4549C6.64557 40.9725 6.38665 41.1162 5.92635 41.1737C6.47296 41.605 6.99079 42.1513 7.33602 42.6113C7.30725 42.18 7.47986 41.8925 8.02647 41.3462C8.14154 41.2312 8.28539 41.0875 8.40046 40.9725C8.88953 41.4612 9.40737 41.95 9.89643 42.4101C9.78136 42.5538 9.63751 42.6688 9.52244 42.8126C9.0046 43.3589 8.71692 43.5602 8.28539 43.5602C8.77445 43.8764 9.32106 44.394 9.78136 44.8828C9.81013 44.4515 9.95397 44.1352 10.4143 43.5602C10.7883 43.1001 11.191 42.6401 11.6226 42.18C12.0541 41.72 12.2842 41.5475 12.687 41.4612C12.7733 41.5762 12.8021 41.7775 12.8596 42.1225C12.9459 42.8413 13.0035 43.4739 13.0035 44.1064C12.2842 44.0202 11.8527 44.279 11.6226 44.6815C11.2773 45.2853 11.4212 46.0328 12.5432 46.6941C13.0898 47.0104 13.5213 47.1542 14.0967 47.4992C14.298 47.6142 14.4994 47.758 14.7008 47.873C14.6145 47.4417 14.672 47.1254 15.0173 46.4354C15.2762 45.8891 15.5639 45.3428 15.8803 44.7677C16.1968 44.0489 16.3694 43.8764 16.8872 43.6752ZM13.8953 45.8603C13.7514 46.1191 13.6364 46.2916 13.5213 46.4354C13.3774 46.3779 13.2336 46.3204 13.1185 46.2341C12.5719 45.9178 12.4568 45.4578 12.7158 45.0265C12.9747 44.5952 13.435 44.5377 13.8665 44.7965C14.0104 44.8828 14.183 44.9978 14.3268 45.1128C14.183 45.3428 14.0391 45.6016 13.8953 45.8603ZM7.19217 39.1611C8.40046 38.3848 8.68815 37.0909 7.88262 35.8258C7.0771 34.5607 5.6962 34.2444 4.51669 34.992C3.3084 35.7396 3.02071 37.0334 3.82624 38.3273C4.63176 39.5924 5.98389 39.9086 7.19217 39.1611ZM4.43038 38.011C4.05639 37.4359 4.25777 36.6596 5.29344 35.9983C6.24281 35.3945 6.90449 35.5958 7.24971 36.1421C7.62371 36.7459 7.42232 37.4934 6.38665 38.1547C5.43728 38.7585 4.7756 38.5573 4.43038 38.011ZM6.70311 8.05122L6.6168 7.96497C7.04833 7.61994 7.39356 7.24616 7.68124 6.90114C8.88953 7.01615 10.0978 7.1024 11.3061 7.15991C11.0759 6.87239 10.8458 6.61362 10.6157 6.35485C10.1554 5.83731 9.8389 5.66479 9.20598 5.63604C9.86766 5.26226 10.2992 4.91724 10.6444 4.51471C10.702 4.94599 10.8458 5.29102 11.3349 5.89481C11.9678 6.72862 12.6295 7.59119 13.2911 8.39625L13.2048 8.48251C11.7664 8.33875 10.2992 8.22374 8.86076 8.16623C9.17722 8.51126 9.49367 8.85629 9.8389 9.20131C10.4718 9.86261 10.817 9.94887 11.3636 9.97762C10.7883 10.3801 10.3855 10.7827 9.98274 11.2427C9.95397 10.7539 9.8389 10.4377 9.26352 9.80511C8.88953 9.40258 8.51554 9.00005 8.17031 8.65502C7.50863 7.96497 7.13464 7.84996 6.70311 8.05122Z" fill="#606060"/>
</svg>
