<svg width="41" height="50" viewBox="0 0 41 50" fill="none" xmlns="http://www.w3.org/2000/svg">
<g clip-path="url(#clip0_1537_46005)">
<path fill-rule="evenodd" clip-rule="evenodd" d="M33.1459 8.39286C33.6833 8.39286 34.2208 8.30357 34.7582 8.125C35.2956 7.94643 35.7435 7.58929 36.1018 7.23214C36.4601 6.875 36.8184 6.33929 36.9976 5.89286C37.1767 5.35714 37.2663 4.82143 37.2663 4.28571C37.2663 3.75 37.1767 3.125 36.9976 2.67857C36.8184 2.23214 36.4601 1.69643 36.1018 1.25C35.7435 0.892857 35.2061 0.535714 34.6686 0.357143C34.2208 0.0892857 33.6833 0 33.1459 0C32.6084 0 31.9814 0.0892857 31.5335 0.267857C30.9961 0.446429 30.5482 0.803571 30.1003 1.16071C29.742 1.51786 29.3838 2.05357 29.2046 2.58929C29.0255 3.125 28.9359 3.66071 28.9359 4.19643C28.9359 4.73214 29.0255 5.35714 29.2046 5.80357C29.3838 6.33929 29.742 6.78571 30.1003 7.23214C30.4586 7.58929 30.9961 7.94643 31.5335 8.125C31.9814 8.39286 32.5188 8.48214 33.1459 8.39286ZM33.1459 1.60714C34.5791 1.60714 35.4748 2.67857 35.4748 4.19643C35.4748 5.71429 34.5791 6.78571 33.1459 6.78571C31.7127 6.78571 30.8169 5.71429 30.8169 4.19643C30.8169 2.67857 31.7127 1.60714 33.1459 1.60714ZM16.2164 6.78571H19.7097L20.3368 8.30357H22.3074L18.6349 0.267857H17.3808L13.7083 8.30357H15.6789L16.2164 6.78571ZM19.1723 5.35714L18.0078 2.67857L16.8434 5.35714H19.1723ZM8.0651 7.05357L6.0049 3.83929V8.21429H4.12384V0.178571H5.46745L8.51297 5L11.6481 0.178571H12.9917V8.21429H11.1106V3.83929L9.05042 7.05357H8.0651ZM24.0093 8.21429H25.8904V5.35714L29.0255 0.178571H26.9653L24.9946 3.66071L23.024 0.178571H20.9638L24.0093 5.35714V8.21429ZM9.13999 19.6429V11.6071H11.0211V18.125H15.1415V19.6429H9.13999ZM18.3661 11.5179H16.4851V19.5536H18.3661V11.5179ZM6.3632 16.875L8.0651 17.5C7.43809 18.9286 6.0049 19.7321 4.21342 19.7321C1.43662 19.7321 -0.44444 17.5893 0.00343098 14.7321C0.182579 13.9286 0.63045 13.125 1.16789 12.5C1.88449 11.9643 2.69066 11.6071 3.49682 11.4286C5.55703 11.1607 7.34851 12.0536 7.97553 13.6607L6.3632 14.2857C6.18405 13.8393 5.91533 13.4821 5.55703 13.3036C5.19873 13.0357 4.75086 12.9464 4.30299 12.9464C2.8698 12.9464 1.97406 14.0179 1.97406 15.5357C1.97406 17.0536 2.8698 18.125 4.30299 18.125C4.75086 18.125 5.19873 18.0357 5.55703 17.7679C5.91533 17.6786 6.18405 17.3214 6.3632 16.875ZM31.3544 11.5179H29.4733V19.5536H31.3544V11.5179ZM38.0724 17.8571C38.4307 17.5893 38.789 17.3214 38.9682 16.875L40.6701 17.5C40.0431 18.9286 38.6099 19.7321 36.8184 19.7321C34.0416 19.7321 32.1606 17.5893 32.6084 14.7321C32.7876 13.9286 33.2354 13.125 33.7729 12.5C34.3999 11.875 35.2061 11.5179 36.0122 11.3393C38.0724 11.0714 39.8639 11.9643 40.4909 13.5714L38.9682 14.2857C38.789 13.8393 38.5203 13.4821 38.162 13.3036C37.8037 13.0357 37.3559 12.9464 36.908 12.9464C35.4748 12.9464 34.5791 14.0179 34.5791 15.5357C34.5791 17.1429 35.4748 18.125 36.908 18.125C37.2663 18.2143 37.7141 18.0357 38.0724 17.8571ZM21.5012 11.5179H20.2472V19.5536H22.1282V14.6429L26.4278 19.5536H27.6818V11.5179H25.8008V16.4286L21.5012 11.5179ZM22.8448 30.3571V25.1786H36.8184V33.0357C36.8184 37.7679 34.4895 40.8036 29.8316 42.3214C29.2942 42.1429 28.6672 41.9643 28.1297 41.6964V41.875C27.4131 45.8929 24.905 48.5714 20.4263 50C15.9476 48.5714 13.4396 45.8929 12.723 41.875C12.723 41.875 12.723 41.7857 12.723 41.6964C12.1855 41.9643 11.6481 42.1429 11.0211 42.3214C6.27362 40.8036 4.03427 37.7679 4.03427 33.0357V25.1786H18.0974V30.3571C18.187 30.3571 22.8448 30.3571 22.8448 30.3571ZM11.1106 40.7143C7.25894 39.1964 5.73618 36.9643 5.73618 32.7679V27.6786C5.73618 27.5 5.82575 27.2321 6.0049 27.1429C6.18405 26.9643 6.3632 26.875 6.54234 26.875H15.6789C15.8581 26.875 16.1268 26.9643 16.2164 27.1429C16.3955 27.3214 16.4851 27.5 16.4851 27.6786V30.3571H12.6334V40C12.1855 40.2679 11.6481 40.5357 11.1106 40.7143ZM16.4851 32.7679V32.0536H15.1415C14.9623 32.0536 14.6936 32.1429 14.604 32.3214C14.4249 32.5 14.3353 32.6786 14.3353 32.8571V38.8393C15.8581 37.4107 16.4851 35.5357 16.4851 32.7679ZM20.5159 48.3036C24.278 46.7857 26.1591 44.6429 26.607 41.0714C26.607 41.0714 26.607 40.9821 26.607 40.8036C24.0989 39.1071 22.8448 36.5179 22.8448 33.0357V31.9643H18.187V33.0357C18.187 36.5179 16.9329 39.1071 14.4249 40.8036C14.4249 40.9821 14.4249 41.0714 14.4249 41.0714C14.8727 44.6429 16.7538 46.875 20.5159 48.3036ZM24.5467 32.7679C24.5467 35.4464 25.1738 37.4107 26.6965 38.8393V32.8571C26.6965 32.7679 26.6965 32.6786 26.607 32.5893C26.607 32.5 26.5174 32.4107 26.4278 32.3214C26.3382 32.2321 26.2487 32.1429 26.1591 32.1429C26.0695 32.1429 25.9799 32.0536 25.8904 32.0536H24.5467V32.7679ZM29.8316 40.7143C33.6833 39.1964 35.2061 36.9643 35.2061 32.7679V27.6786C35.2061 27.5 35.1165 27.2321 34.9374 27.1429C34.7582 26.9643 34.5791 26.875 34.3999 26.875H25.3529C25.1738 26.875 24.905 26.9643 24.8155 27.1429C24.6363 27.3214 24.5467 27.5 24.5467 27.6786V30.3571H28.3984V40C28.8463 40.2679 29.3838 40.5357 29.8316 40.7143Z" fill="black"/>
</g>
<defs>
<clipPath id="clip0_1537_46005">
<rect width="40.6667" height="50" fill="white"/>
</clipPath>
</defs>
</svg>
