<svg width="80" height="24" viewBox="0 0 80 24" fill="none" xmlns="http://www.w3.org/2000/svg">
<g clip-path="url(#clip0_1537_46033)">
<path fill-rule="evenodd" clip-rule="evenodd" d="M49.4663 18.769C44.8329 22.1802 38.1169 24.0002 32.3346 24.0002C24.2268 24.0002 16.9278 21.005 11.4058 16.0233C10.9719 15.6316 11.3607 15.0977 11.8813 15.4028C17.8406 18.866 25.2091 20.9495 32.8205 20.9495C37.9538 20.9495 43.6007 19.8887 48.793 17.6874C49.5774 17.3546 50.2334 18.2004 49.4663 18.769Z" fill="#606060"/>
<path fill-rule="evenodd" clip-rule="evenodd" d="M51.394 16.5641C50.804 15.8084 47.479 16.207 45.9866 16.3838C45.5319 16.4393 45.4625 16.0441 45.872 15.7598C48.5202 13.8982 52.8657 14.4355 53.3724 15.0595C53.8791 15.687 53.2405 20.0377 50.7519 22.1143C50.3702 22.4332 50.0057 22.2634 50.1758 21.8404C50.7346 20.4468 51.9875 17.3233 51.394 16.5641Z" fill="#606060"/>
<path fill-rule="evenodd" clip-rule="evenodd" d="M46.0866 2.61879V0.809167C46.0866 0.535298 46.2949 0.351562 46.5448 0.351562H54.656C54.9163 0.351562 55.1245 0.538765 55.1245 0.809167V2.35878C55.1211 2.61879 54.9024 2.95852 54.5137 3.49586L50.3105 9.48979C51.8724 9.45166 53.521 9.68392 54.9371 10.4813C55.2564 10.6615 55.3432 10.925 55.3675 11.185V13.116C55.3675 13.3794 55.0759 13.688 54.7705 13.5285C52.275 12.2216 48.9604 12.0794 46.2011 13.5424C45.92 13.6949 45.625 13.3898 45.625 13.1264V11.2925C45.625 10.9978 45.6285 10.4951 45.9235 10.0479L50.793 3.07292H46.5552C46.2949 3.07292 46.0866 2.88919 46.0866 2.61879Z" fill="black"/>
<path fill-rule="evenodd" clip-rule="evenodd" d="M16.5023 13.9155H14.0345C13.7985 13.8982 13.6111 13.7214 13.5938 13.4961V0.846076C13.5938 0.593007 13.8055 0.391937 14.0692 0.391937H16.3704C16.6099 0.40233 16.8008 0.586072 16.8181 0.814874V2.46849H16.8632C17.4637 0.870341 18.5917 0.125 20.1119 0.125C21.6564 0.125 22.6212 0.870341 23.3154 2.46849C23.9124 0.870341 25.2695 0.125 26.7237 0.125C27.758 0.125 28.8895 0.551404 29.5802 1.50821C30.3611 2.57249 30.2014 4.11864 30.2014 5.47412L30.198 13.4579C30.198 13.711 29.9862 13.9155 29.7225 13.9155H27.2582C27.0118 13.8982 26.814 13.7006 26.814 13.4579V6.75333C26.814 6.21946 26.8625 4.88825 26.7445 4.38211C26.5606 3.53277 26.0087 3.29357 25.2937 3.29357C24.6968 3.29357 24.072 3.69224 23.8187 4.33011C23.5653 4.96798 23.5896 6.03573 23.5896 6.75333V13.4579C23.5896 13.711 23.3779 13.9155 23.1141 13.9155H20.6498C20.4 13.8982 20.2056 13.7006 20.2056 13.4579L20.2021 6.75333C20.2021 5.34239 20.4347 3.26583 18.6819 3.26583C16.9083 3.26583 16.9778 5.29039 16.9778 6.75333V13.4579C16.9778 13.711 16.766 13.9155 16.5023 13.9155Z" fill="black"/>
<path fill-rule="evenodd" clip-rule="evenodd" d="M62.1079 0.125C65.7696 0.125 67.7514 3.26583 67.7514 7.25947C67.7514 11.1179 65.5614 14.179 62.1079 14.179C58.5122 14.179 56.5547 11.0382 56.5547 7.12427C56.5547 3.1861 58.5365 0.125 62.1079 0.125ZM62.1288 2.70769C60.3101 2.70769 60.1955 5.18292 60.1955 6.7256C60.1955 8.27175 60.1712 11.5721 62.1079 11.5721C64.0203 11.5721 64.1106 8.90963 64.1106 7.28721C64.1106 6.21946 64.0655 4.94372 63.7427 3.93144C63.465 3.0509 62.9132 2.70769 62.1288 2.70769Z" fill="black"/>
<path fill-rule="evenodd" clip-rule="evenodd" d="M72.4988 13.9155H70.0415C69.795 13.8982 69.5972 13.7006 69.5972 13.4579L69.5938 0.804474C69.6146 0.572204 69.8194 0.391937 70.0692 0.391937H72.3565C72.5717 0.40233 72.7487 0.547939 72.7973 0.745541V2.67996H72.8424C73.5331 0.950076 74.5014 0.125 76.2056 0.125C77.3128 0.125 78.3922 0.523671 79.0863 1.61568C79.7319 2.62796 79.7319 4.33011 79.7319 5.55385V13.5169C79.7041 13.7387 79.4994 13.9155 79.2564 13.9155H76.7817C76.5561 13.8982 76.3687 13.7318 76.3444 13.5169V6.64587C76.3444 5.26265 76.5041 3.2381 74.7999 3.2381C74.1995 3.2381 73.6476 3.64024 73.3734 4.25038C73.0263 5.02345 72.9812 5.79306 72.9812 6.64587V13.4579C72.9778 13.711 72.7626 13.9155 72.4988 13.9155Z" fill="black"/>
<path fill-rule="evenodd" clip-rule="evenodd" d="M39.6228 7.86942C39.6228 8.82969 39.6471 9.6305 39.1612 10.4833C38.769 11.1767 38.1443 11.6031 37.4536 11.6031C36.5061 11.6031 35.9508 10.882 35.9508 9.8177C35.9508 7.71688 37.8354 7.33554 39.6228 7.33554V7.86942ZM42.1114 13.8772C41.9483 14.0228 41.7123 14.0332 41.5283 13.9361C40.7092 13.2567 40.56 12.9412 40.1122 12.2929C38.7586 13.6727 37.7972 14.0852 36.0445 14.0852C33.9655 14.0852 32.3516 12.806 32.3516 10.2441C32.3516 8.24382 33.4344 6.88141 34.9824 6.2158C36.3221 5.62646 38.1929 5.52246 39.6228 5.35952V5.04059C39.6228 4.45471 39.668 3.76137 39.3209 3.25524C39.0224 2.8011 38.4462 2.61389 37.936 2.61389C36.9955 2.61389 36.159 3.09577 35.9542 4.09418C35.9126 4.31605 35.7495 4.53445 35.5239 4.54485L33.1325 4.28831C32.9312 4.24325 32.7056 4.08031 32.7646 3.77177C33.313 0.873611 35.9369 0 38.2831 0C39.484 0 41.0528 0.318937 42.0003 1.22721C43.2012 2.34696 43.0867 3.84111 43.0867 5.46699V9.3081C43.0867 10.4625 43.5656 10.9686 44.0168 11.5927C44.173 11.8145 44.2077 12.0815 44.0064 12.2479C43.5032 12.6673 42.6077 13.4473 42.1149 13.8841L42.1114 13.8772Z" fill="black"/>
<path fill-rule="evenodd" clip-rule="evenodd" d="M7.27128 7.86942C7.27128 8.82969 7.29558 9.6305 6.80967 10.4833C6.41747 11.1767 5.7962 11.6031 5.10204 11.6031C4.15452 11.6031 3.60267 10.882 3.60267 9.8177C3.60267 7.71688 5.4873 7.33554 7.27128 7.33554V7.86942ZM9.75983 13.8772C9.5967 14.0228 9.36069 14.0332 9.17674 13.9361C8.35764 13.2567 8.21186 12.9412 7.76066 12.2929C6.40706 13.6727 5.44912 14.0852 3.69291 14.0852C1.61738 14.0852 0 12.806 0 10.2441C0 8.24382 1.08635 6.88141 2.63085 6.2158C3.97057 5.62646 5.84132 5.52246 7.27128 5.35952V5.04059C7.27128 4.45471 7.3164 3.76137 6.9728 3.25524C6.67084 2.8011 6.09469 2.61389 5.58795 2.61389C4.64737 2.61389 3.80744 3.09577 3.60267 4.09418C3.56102 4.31605 3.39789 4.53445 3.17576 4.54485L0.780925 4.28831C0.57962 4.24325 0.35749 4.08031 0.413022 3.77177C0.964876 0.873611 3.58531 0 5.93156 0C7.13245 0 8.70124 0.318937 9.64876 1.22721C10.8497 2.34696 10.7351 3.84111 10.7351 5.46699V9.3081C10.7351 10.4625 11.2141 10.9686 11.6653 11.5927C11.8249 11.8145 11.8597 12.0815 11.6583 12.2479C11.1551 12.6673 10.2596 13.4473 9.76677 13.8841L9.75983 13.8772Z" fill="black"/>
</g>
<defs>
<clipPath id="clip0_1537_46033">
<rect width="79.7342" height="24" fill="white"/>
</clipPath>
</defs>
</svg>
