<svg width="104" height="20" viewBox="0 0 104 20" fill="none" xmlns="http://www.w3.org/2000/svg">
<g clip-path="url(#clip0_1609_325)">
<path d="M99.5271 1.52852C101.21 4.03305 102.106 6.97316 102.106 10.0222C102.106 13.0712 101.21 16.0113 99.5271 18.5158C99.2406 18.9514 99.348 19.5684 99.7778 19.8588C100.208 20.1492 100.816 20.0403 101.103 19.6047C103.001 16.7735 104.039 13.4341 104.039 10.0222C104.039 6.57389 103.037 3.2708 101.103 0.439587C100.816 0.00401517 100.208 -0.104878 99.7778 0.185503C99.348 0.475885 99.2406 1.09294 99.5271 1.52852Z" fill="black"/>
<path d="M96.5167 17.2047C96.9465 17.5313 97.5195 17.4224 97.8418 17.0232C99.346 15.0268 100.134 12.5586 100.134 10.054C100.134 7.47688 99.3101 5.08124 97.806 3.04857C97.4837 2.613 96.8749 2.5404 96.4809 2.86708C96.0512 3.19376 95.9796 3.81082 96.3019 4.21009C97.5553 5.87979 98.2716 7.94875 98.2358 10.0903C98.2358 12.1956 97.5911 14.2282 96.3019 15.8979C96.0154 16.2609 96.087 16.8417 96.5167 17.2047C96.5167 17.1684 96.5167 17.1684 96.5167 17.2047Z" fill="black"/>
<path d="M93.1488 14.8464C93.5427 15.1731 94.1515 15.1005 94.4738 14.7012C95.5482 13.3582 96.1212 11.6885 96.1212 9.9825C96.1212 8.27651 95.584 6.67941 94.5455 5.3364C94.2231 4.90083 93.6143 4.82823 93.2204 5.15491C92.7906 5.48159 92.719 6.09865 93.0413 6.49792C93.7934 7.47796 94.2231 8.71208 94.2231 9.9462C94.2231 11.2166 93.7934 12.4507 93.0055 13.4671C92.6832 13.9026 92.719 14.4834 93.1488 14.8464ZM4.47658 18.4761C2.79339 15.9716 1.86226 13.0315 1.89807 9.9825C1.89807 6.93349 2.79339 3.99339 4.47658 1.48885C4.76309 1.08957 4.65565 0.472514 4.2259 0.182133C3.79614 -0.144546 3.22314 -0.0356528 2.93664 0.399919C1.00275 3.23113 0 6.57052 0 9.9825C0 13.4308 1.00275 16.7702 2.93664 19.5651C3.22314 20.0006 3.83196 20.1095 4.26171 19.8192C4.69146 19.5288 4.7989 18.9117 4.47658 18.4761Z" fill="black"/>
<path d="M7.69914 4.17103C8.02146 3.73546 7.94983 3.1547 7.52008 2.82802C7.09033 2.50134 6.51733 2.57394 6.19501 3.00951C4.65507 5.04218 3.86719 7.47412 3.86719 10.015C3.86719 12.5195 4.65507 14.9877 6.1592 16.9841C6.48151 17.4197 7.05452 17.4923 7.48427 17.1656C7.91402 16.8389 7.98565 16.2581 7.66333 15.8226C6.40989 14.1529 5.72945 12.1202 5.72945 10.015C5.76526 7.87339 6.4457 5.84072 7.69914 4.17103Z" fill="black"/>
<path d="M7.875 9.94743C7.875 11.6534 8.448 13.3231 9.52238 14.6661C9.8447 15.0654 10.4535 15.138 10.8475 14.8113C11.2414 14.4846 11.313 13.8676 10.9907 13.4683C10.2028 12.4883 9.77307 11.2179 9.77307 9.94743C9.77307 8.67702 10.167 7.47919 10.9549 6.49916C11.2772 6.06359 11.2056 5.48282 10.7758 5.15614C10.3461 4.82947 9.77307 4.90206 9.45076 5.33763C8.448 6.64435 7.875 8.27774 7.875 9.94743Z" fill="black"/>
<path d="M17.0495 12.087C17.0495 12.5226 17.2285 12.8856 17.515 13.1034C17.8015 13.3212 18.1597 13.4301 18.5894 13.4301C19.2698 13.4301 19.9503 13.2123 19.9503 12.45C19.9503 10.6714 13.2175 12.087 13.2175 7.76762C13.2175 4.93641 16.1183 4.10156 18.4103 4.10156C20.8098 4.10156 23.6032 4.64603 23.8539 7.62243H19.9145C19.8787 7.29575 19.7354 7.00537 19.4847 6.82389C19.3057 6.6061 18.9833 6.5335 18.6252 6.5335C17.8731 6.5335 17.3718 6.75129 17.3718 7.33205C17.3718 8.89285 24.2836 7.84022 24.2836 12.0144C24.2836 14.3375 22.3855 15.8983 18.3745 15.8983C15.8676 15.8983 13.1101 15.0997 12.8594 12.1233L17.0495 12.087ZM25.0715 4.13786H28.6169V5.84385H25.0715V4.13786ZM25.0715 15.6079V6.5698H28.6169V15.6079H25.0715ZM29.5481 6.6061H32.7712V8.42098H32.807C33.3084 7.00537 34.1679 6.35202 35.5288 6.35202C35.672 6.35202 35.8153 6.38831 35.9944 6.42461V10.0181C35.7437 9.98178 35.493 9.90918 35.2781 9.90918C33.8456 9.90918 33.0935 10.5988 33.0935 12.5589V15.6805H29.5481V6.6061ZM36.7464 4.13786H40.2919V5.84385H36.7464V4.13786ZM36.7464 15.6079V6.5698H40.2919V15.6079H36.7464ZM50.8208 15.6079H47.526V14.2649C46.6307 15.499 45.7712 15.862 44.3029 15.862C42.369 15.862 41.1156 14.6642 41.1156 12.087V6.5698H44.661V11.4337C44.661 12.6678 45.0908 13.0671 45.9145 13.0671C46.953 13.0671 47.2754 12.3048 47.2754 10.8892V6.5335H50.8208V15.6079ZM54.5811 12.813C54.5811 13.176 54.7244 13.4301 54.9751 13.6478C55.19 13.8293 55.5123 13.9382 55.8346 13.9382C56.3718 13.9382 56.9448 13.7567 56.9448 13.1397C56.9448 11.6878 51.5012 12.8493 51.5012 9.36472C51.5012 7.04167 53.8649 6.38831 55.7271 6.38831C57.661 6.38831 59.953 6.82389 60.1679 9.21953H56.9448C56.909 8.92915 56.8015 8.71136 56.5866 8.56617C56.4076 8.42098 56.1569 8.34839 55.8704 8.34839C55.2616 8.34839 54.8676 8.52987 54.8676 8.96545C54.8676 10.2359 60.4902 9.36472 60.4902 12.7404C60.4902 14.6279 58.9503 15.8983 55.6913 15.8983C53.65 15.8983 51.3938 15.2812 51.2147 12.813H54.5811Z" fill="black"/>
<path d="M63.9238 9.72551L60.3067 4.42606H65.1414L66.5381 7.22098L68.0064 4.42606H72.7695L69.0092 9.72551L72.8053 15.5694H67.9348L66.3948 12.3752L64.7833 15.5694H59.9844L63.9238 9.72551ZM73.0918 4.42606H77.1028V6.09575C77.64 5.2609 78.6428 4.13568 80.2185 4.13568C82.045 4.13568 83.1552 4.97052 83.6566 6.16834C84.5877 4.82533 85.4114 4.13568 87.0229 4.13568C89.7805 4.13568 91.1414 5.95056 91.1414 8.99956V15.5694H86.7723V9.907C86.7723 8.27361 86.6648 7.62025 85.5188 7.62025C84.3012 7.62025 84.3012 8.74548 84.3012 10.0885V15.6057H79.932V9.907C79.932 8.27361 79.8246 7.65655 78.6786 7.62025C77.4968 7.58395 77.461 8.74548 77.461 10.0885V15.6057H73.0918V4.42606ZM90.9623 2.42969C90.3177 2.42969 89.7805 2.97415 89.7805 3.62751C89.7805 4.28087 90.3177 4.78903 90.9265 4.78903C91.5712 4.78903 92.1083 4.24457 92.1083 3.62751C92.1083 2.97415 91.5712 2.42969 90.9623 2.42969ZM90.9265 4.64384C90.3893 4.64384 89.9238 4.20827 89.9238 3.62751C89.9238 3.62751 89.9238 3.62751 89.9238 3.59121C89.9238 3.01045 90.3535 2.57488 90.9265 2.57488C91.4637 2.57488 91.9293 3.01045 91.9293 3.59121C91.9293 3.59121 91.9293 3.59121 91.9293 3.62751C91.9293 4.20827 91.4995 4.64384 90.9265 4.64384Z" fill="black"/>
<path d="M91.4637 3.37584C91.4637 3.26694 91.4279 3.19435 91.3563 3.12175C91.2846 3.04916 91.1414 2.97656 90.9981 2.97656H90.4609V4.21068H90.6758V3.77511H90.9265L91.213 4.21068H91.4995L91.1772 3.73881C91.3563 3.70252 91.4637 3.59362 91.4637 3.37584ZM90.9981 3.59362H90.7116V3.19435H90.9981C91.1414 3.19435 91.2488 3.26694 91.2488 3.37584C91.2488 3.52103 91.1414 3.59362 90.9981 3.59362Z" fill="black"/>
</g>
<defs>
<clipPath id="clip0_1609_325">
<rect width="104" height="20" fill="white"/>
</clipPath>
</defs>
</svg>
